<svg width="181" height="80" viewBox="0 0 181 80" fill="none" xmlns="http://www.w3.org/2000/svg">
<path d="M1.5 35L20.25 25L39 35L20.25 45L1.5 35Z" stroke="#0A47C2" stroke-width="3" stroke-linecap="round" stroke-linejoin="round"/>
<path d="M29.625 57.5V40L20.25 35" stroke="#0A47C2" stroke-width="3" stroke-linecap="round" stroke-linejoin="round"/>
<path d="M34.625 37.3333V45.8521C34.6255 46.1218 34.5384 46.3843 34.3766 46.6001C33.324 48.0008 28.8833 53.1249 20.25 53.1249C11.6167 53.1249 7.17597 48.0008 6.12336 46.6001C5.96165 46.3843 5.87449 46.1218 5.875 45.8521V37.3333" stroke="#0A47C2" stroke-width="3" stroke-linecap="round" stroke-linejoin="round"/>
<path d="M55.674 37.624H66.458V41.656H55.674V37.624ZM56.058 46.84H68.25V51H50.906V28.6H67.834V32.76H56.058V46.84ZM78.361 51.256C76.7397 51.256 75.2783 50.8933 73.977 50.168C72.6757 49.4213 71.641 48.3867 70.873 47.064C70.1263 45.7413 69.753 44.184 69.753 42.392C69.753 40.5787 70.1263 39.0107 70.873 37.688C71.641 36.3653 72.6757 35.3413 73.977 34.616C75.2783 33.8907 76.7397 33.528 78.361 33.528C79.8117 33.528 81.081 33.848 82.169 34.488C83.257 35.128 84.0997 36.0987 84.697 37.4C85.2943 38.7013 85.593 40.3653 85.593 42.392C85.593 44.3973 85.305 46.0613 84.729 47.384C84.153 48.6853 83.321 49.656 82.233 50.296C81.1663 50.936 79.8757 51.256 78.361 51.256ZM79.225 47.16C80.0357 47.16 80.7717 46.968 81.433 46.584C82.0943 46.2 82.617 45.656 83.001 44.952C83.4063 44.2267 83.609 43.3733 83.609 42.392C83.609 41.3893 83.4063 40.536 83.001 39.832C82.617 39.128 82.0943 38.584 81.433 38.2C80.7717 37.816 80.0357 37.624 79.225 37.624C78.393 37.624 77.6463 37.816 76.985 38.2C76.3237 38.584 75.7903 39.128 75.385 39.832C75.001 40.536 74.809 41.3893 74.809 42.392C74.809 43.3733 75.001 44.2267 75.385 44.952C75.7903 45.656 76.3237 46.2 76.985 46.584C77.6463 46.968 78.393 47.16 79.225 47.16ZM83.737 51V47.48L83.833 42.36L83.513 37.272V27.256H88.505V51H83.737ZM99.4293 51.256C97.9999 51.256 96.7199 50.9787 95.5893 50.424C94.4799 49.8693 93.6159 49.0267 92.9973 47.896C92.3786 46.744 92.0693 45.2827 92.0693 43.512V33.784H97.0613V42.776C97.0613 44.2053 97.3599 45.2613 97.9573 45.944C98.5759 46.6053 99.4399 46.936 100.549 46.936C101.317 46.936 102 46.776 102.597 46.456C103.195 46.1147 103.664 45.6027 104.005 44.92C104.347 44.216 104.517 43.3413 104.517 42.296V33.784H109.509V51H104.773V46.264L105.637 47.64C105.061 48.8347 104.208 49.7413 103.077 50.36C101.968 50.9573 100.752 51.256 99.4293 51.256ZM121.494 51.256C119.638 51.256 117.985 50.8827 116.534 50.136C115.083 49.368 113.942 48.312 113.11 46.968C112.299 45.624 111.894 44.0987 111.894 42.392C111.894 40.664 112.299 39.1387 113.11 37.816C113.942 36.472 115.083 35.4267 116.534 34.68C117.985 33.912 119.638 33.528 121.494 33.528C123.307 33.528 124.886 33.912 126.23 34.68C127.574 35.4267 128.566 36.504 129.206 37.912L125.334 39.992C124.886 39.1813 124.321 38.584 123.638 38.2C122.977 37.816 122.251 37.624 121.462 37.624C120.609 37.624 119.841 37.816 119.158 38.2C118.475 38.584 117.931 39.128 117.526 39.832C117.142 40.536 116.95 41.3893 116.95 42.392C116.95 43.3947 117.142 44.248 117.526 44.952C117.931 45.656 118.475 46.2 119.158 46.584C119.841 46.968 120.609 47.16 121.462 47.16C122.251 47.16 122.977 46.9787 123.638 46.616C124.321 46.232 124.886 45.624 125.334 44.792L129.206 46.904C128.566 48.2907 127.574 49.368 126.23 50.136C124.886 50.8827 123.307 51.256 121.494 51.256ZM141.68 51V47.64L141.36 46.904V40.888C141.36 39.8213 141.03 38.9893 140.368 38.392C139.728 37.7947 138.736 37.496 137.392 37.496C136.475 37.496 135.568 37.6453 134.672 37.944C133.798 38.2213 133.051 38.6053 132.432 39.096L130.64 35.608C131.579 34.9467 132.71 34.4347 134.032 34.072C135.355 33.7093 136.699 33.528 138.064 33.528C140.688 33.528 142.726 34.1467 144.176 35.384C145.627 36.6213 146.352 38.552 146.352 41.176V51H141.68ZM136.432 51.256C135.088 51.256 133.936 51.032 132.976 50.584C132.016 50.1147 131.28 49.4853 130.768 48.696C130.256 47.9067 130 47.0213 130 46.04C130 45.016 130.246 44.12 130.736 43.352C131.248 42.584 132.048 41.9867 133.136 41.56C134.224 41.112 135.643 40.888 137.392 40.888H141.968V43.8H137.936C136.763 43.8 135.952 43.992 135.504 44.376C135.078 44.76 134.864 45.24 134.864 45.816C134.864 46.456 135.11 46.968 135.6 47.352C136.112 47.7147 136.806 47.896 137.68 47.896C138.512 47.896 139.259 47.704 139.92 47.32C140.582 46.9147 141.062 46.328 141.36 45.56L142.128 47.864C141.766 48.9733 141.104 49.816 140.144 50.392C139.184 50.968 137.947 51.256 136.432 51.256ZM156.95 51.256C154.924 51.256 153.345 50.744 152.214 49.72C151.084 48.6747 150.518 47.128 150.518 45.08V29.976H155.51V45.016C155.51 45.7413 155.702 46.3067 156.086 46.712C156.47 47.096 156.993 47.288 157.654 47.288C158.444 47.288 159.116 47.0747 159.67 46.648L161.014 50.168C160.502 50.5307 159.884 50.808 159.158 51C158.454 51.1707 157.718 51.256 156.95 51.256ZM147.862 38.008V34.168H159.798V38.008H147.862ZM170.869 51.256C168.907 51.256 167.179 50.872 165.685 50.104C164.213 49.336 163.072 48.2907 162.261 46.968C161.451 45.624 161.045 44.0987 161.045 42.392C161.045 40.664 161.44 39.1387 162.229 37.816C163.04 36.472 164.139 35.4267 165.525 34.68C166.912 33.912 168.48 33.528 170.229 33.528C171.915 33.528 173.429 33.8907 174.773 34.616C176.139 35.32 177.216 36.344 178.005 37.688C178.795 39.0107 179.189 40.6 179.189 42.456C179.189 42.648 179.179 42.872 179.157 43.128C179.136 43.3627 179.115 43.5867 179.093 43.8H165.109V40.888H176.469L174.549 41.752C174.549 40.856 174.368 40.0773 174.005 39.416C173.643 38.7547 173.141 38.2427 172.501 37.88C171.861 37.496 171.115 37.304 170.261 37.304C169.408 37.304 168.651 37.496 167.989 37.88C167.349 38.2427 166.848 38.7653 166.485 39.448C166.123 40.1093 165.941 40.8987 165.941 41.816V42.584C165.941 43.5227 166.144 44.3547 166.549 45.08C166.976 45.784 167.563 46.328 168.309 46.712C169.077 47.0747 169.973 47.256 170.997 47.256C171.915 47.256 172.715 47.1173 173.397 46.84C174.101 46.5627 174.741 46.1467 175.317 45.592L177.973 48.472C177.184 49.368 176.192 50.0613 174.997 50.552C173.803 51.0213 172.427 51.256 170.869 51.256Z" fill="#0A47C2"/>
</svg>
