<svg width="208" height="46" viewBox="0 0 208 46" fill="none" xmlns="http://www.w3.org/2000/svg">
<path d="M1.72461 17.25L23.2871 5.75L44.8496 17.25L23.2871 28.75L1.72461 17.25Z" stroke="#0A47C2" stroke-width="3.45" stroke-linecap="round" stroke-linejoin="round"/>
<path d="M34.0684 43.125V23L23.2871 17.25" stroke="#0A47C2" stroke-width="3.45" stroke-linecap="round" stroke-linejoin="round"/>
<path d="M39.8184 19.9331V29.7298C39.819 30.0399 39.7187 30.3418 39.5328 30.59C38.3223 32.2007 33.2154 38.0935 23.2871 38.0935C13.3589 38.0935 8.25197 32.2007 7.04148 30.59C6.85551 30.3418 6.75527 30.0399 6.75586 29.7298V19.9331" stroke="#0A47C2" stroke-width="3.45" stroke-linecap="round" stroke-linejoin="round"/>
<path d="M64.0249 20.6176H76.4265V25.2544H64.0249V20.6176ZM64.4665 31.216H78.4873V36H58.5417V10.24H78.0089V15.024H64.4665V31.216ZM90.115 36.2944C88.2504 36.2944 86.5699 35.8773 85.0734 35.0432C83.5768 34.1845 82.387 32.9947 81.5038 31.4736C80.6451 29.9525 80.2158 28.1616 80.2158 26.1008C80.2158 24.0155 80.6451 22.2123 81.5038 20.6912C82.387 19.1701 83.5768 17.9925 85.0734 17.1584C86.5699 16.3243 88.2504 15.9072 90.115 15.9072C91.7832 15.9072 93.243 16.2752 94.4942 17.0112C95.7454 17.7472 96.7144 18.8635 97.4014 20.36C98.0883 21.8565 98.4318 23.7701 98.4318 26.1008C98.4318 28.4069 98.1006 30.3205 97.4382 31.8416C96.7758 33.3381 95.819 34.4544 94.5678 35.1904C93.3411 35.9264 91.8568 36.2944 90.115 36.2944ZM91.1086 31.584C92.0408 31.584 92.8872 31.3632 93.6478 30.9216C94.4083 30.48 95.0094 29.8544 95.451 29.0448C95.9171 28.2107 96.1502 27.2293 96.1502 26.1008C96.1502 24.9477 95.9171 23.9664 95.451 23.1568C95.0094 22.3472 94.4083 21.7216 93.6478 21.28C92.8872 20.8384 92.0408 20.6176 91.1086 20.6176C90.1518 20.6176 89.2931 20.8384 88.5326 21.28C87.772 21.7216 87.1587 22.3472 86.6926 23.1568C86.251 23.9664 86.0302 24.9477 86.0302 26.1008C86.0302 27.2293 86.251 28.2107 86.6926 29.0448C87.1587 29.8544 87.772 30.48 88.5326 30.9216C89.2931 31.3632 90.1518 31.584 91.1086 31.584ZM96.2974 36V31.952L96.4078 26.064L96.0398 20.2128V8.6944H101.781V36H96.2974ZM114.343 36.2944C112.7 36.2944 111.228 35.9755 109.927 35.3376C108.652 34.6997 107.658 33.7307 106.947 32.4304C106.235 31.1056 105.879 29.4251 105.879 27.3888V16.2016H111.62V26.5424C111.62 28.1861 111.964 29.4005 112.651 30.1856C113.362 30.9461 114.356 31.3264 115.631 31.3264C116.515 31.3264 117.3 31.1424 117.987 30.7744C118.674 30.3819 119.213 29.7931 119.606 29.008C119.998 28.1984 120.195 27.1925 120.195 25.9904V16.2016H125.935V36H120.489V30.5536L121.483 32.136C120.82 33.5099 119.839 34.5525 118.539 35.264C117.263 35.9509 115.865 36.2944 114.343 36.2944ZM139.718 36.2944C137.584 36.2944 135.682 35.8651 134.014 35.0064C132.346 34.1232 131.033 32.9088 130.076 31.3632C129.144 29.8176 128.678 28.0635 128.678 26.1008C128.678 24.1136 129.144 22.3595 130.076 20.8384C131.033 19.2928 132.346 18.0907 134.014 17.232C135.682 16.3488 137.584 15.9072 139.718 15.9072C141.803 15.9072 143.619 16.3488 145.164 17.232C146.71 18.0907 147.851 19.3296 148.587 20.9488L144.134 23.3408C143.619 22.4085 142.969 21.7216 142.184 21.28C141.423 20.8384 140.589 20.6176 139.681 20.6176C138.7 20.6176 137.817 20.8384 137.032 21.28C136.246 21.7216 135.621 22.3472 135.155 23.1568C134.713 23.9664 134.492 24.9477 134.492 26.1008C134.492 27.2539 134.713 28.2352 135.155 29.0448C135.621 29.8544 136.246 30.48 137.032 30.9216C137.817 31.3632 138.7 31.584 139.681 31.584C140.589 31.584 141.423 31.3755 142.184 30.9584C142.969 30.5168 143.619 29.8176 144.134 28.8608L148.587 31.2896C147.851 32.8843 146.71 34.1232 145.164 35.0064C143.619 35.8651 141.803 36.2944 139.718 36.2944ZM162.932 36V32.136L162.564 31.2896V24.3712C162.564 23.1445 162.184 22.1877 161.423 21.5008C160.687 20.8139 159.546 20.4704 158.001 20.4704C156.946 20.4704 155.903 20.6421 154.873 20.9856C153.867 21.3045 153.008 21.7461 152.297 22.3104L150.236 18.2992C151.316 17.5387 152.616 16.9499 154.137 16.5328C155.658 16.1157 157.204 15.9072 158.774 15.9072C161.791 15.9072 164.134 16.6187 165.802 18.0416C167.471 19.4645 168.305 21.6848 168.305 24.7024V36H162.932ZM156.897 36.2944C155.351 36.2944 154.026 36.0368 152.922 35.5216C151.818 34.9819 150.972 34.2581 150.383 33.3504C149.794 32.4427 149.5 31.4245 149.5 30.296C149.5 29.1184 149.782 28.088 150.346 27.2048C150.935 26.3216 151.855 25.6347 153.106 25.144C154.358 24.6288 155.989 24.3712 158.001 24.3712H163.263V27.72H158.626C157.277 27.72 156.345 27.9408 155.83 28.3824C155.339 28.824 155.094 29.376 155.094 30.0384C155.094 30.7744 155.376 31.3632 155.94 31.8048C156.529 32.2219 157.326 32.4304 158.332 32.4304C159.289 32.4304 160.148 32.2096 160.908 31.768C161.669 31.3019 162.221 30.6272 162.564 29.744L163.447 32.3936C163.03 33.6693 162.27 34.6384 161.166 35.3008C160.062 35.9632 158.639 36.2944 156.897 36.2944ZM180.493 36.2944C178.162 36.2944 176.346 35.7056 175.046 34.528C173.746 33.3259 173.096 31.5472 173.096 29.192V11.8224H178.837V29.1184C178.837 29.9525 179.057 30.6027 179.499 31.0688C179.941 31.5104 180.542 31.7312 181.302 31.7312C182.21 31.7312 182.983 31.4859 183.621 30.9952L185.166 35.0432C184.577 35.4603 183.866 35.7792 183.032 36C182.222 36.1963 181.376 36.2944 180.493 36.2944ZM170.041 21.0592V16.6432H183.768V21.0592H170.041ZM196.499 36.2944C194.242 36.2944 192.255 35.8528 190.538 34.9696C188.845 34.0864 187.533 32.8843 186.6 31.3632C185.668 29.8176 185.202 28.0635 185.202 26.1008C185.202 24.1136 185.656 22.3595 186.563 20.8384C187.496 19.2928 188.759 18.0907 190.354 17.232C191.949 16.3488 193.752 15.9072 195.763 15.9072C197.702 15.9072 199.443 16.3243 200.989 17.1584C202.559 17.968 203.798 19.1456 204.706 20.6912C205.614 22.2123 206.067 24.04 206.067 26.1744C206.067 26.3952 206.055 26.6528 206.031 26.9472C206.006 27.2171 205.982 27.4747 205.957 27.72H189.875V24.3712H202.939L200.731 25.3648C200.731 24.3344 200.523 23.4389 200.106 22.6784C199.689 21.9179 199.112 21.3291 198.376 20.912C197.64 20.4704 196.782 20.2496 195.8 20.2496C194.819 20.2496 193.948 20.4704 193.187 20.912C192.451 21.3291 191.875 21.9301 191.458 22.7152C191.041 23.4757 190.832 24.3835 190.832 25.4384V26.3216C190.832 27.4011 191.065 28.3579 191.531 29.192C192.022 30.0016 192.697 30.6272 193.555 31.0688C194.439 31.4859 195.469 31.6944 196.647 31.6944C197.702 31.6944 198.622 31.5349 199.407 31.216C200.216 30.8971 200.952 30.4187 201.615 29.7808L204.669 33.0928C203.761 34.1232 202.621 34.9205 201.247 35.4848C199.873 36.0245 198.29 36.2944 196.499 36.2944Z" fill="white"/>
</svg>
