<svg width="28" height="28" viewBox="0 0 28 28" fill="none" xmlns="http://www.w3.org/2000/svg">
<path d="M8.89652 27.0343L9.3815 23.9538L8.30119 23.9287H3.14258L6.72755 1.19762C6.73822 1.12817 6.7735 1.06486 6.82695 1.01924C6.88039 0.973623 6.94846 0.94873 7.01872 0.949101H15.7169C18.6045 0.949101 20.5973 1.55 21.6377 2.73602C22.1255 3.29241 22.4361 3.87383 22.5864 4.51367C22.744 5.18505 22.7468 5.98717 22.5928 6.96548L22.5817 7.03688V7.66374L23.0695 7.94008C23.4419 8.12873 23.7766 8.38392 24.0571 8.69305C24.4744 9.16876 24.7442 9.77337 24.8583 10.4902C24.976 11.2274 24.9371 12.1046 24.7442 13.0978C24.5217 14.2402 24.1619 15.2352 23.6759 16.0494C23.2472 16.7788 22.6708 17.4105 21.9836 17.904C21.3382 18.3621 20.5713 18.7098 19.7043 18.9324C18.8641 19.1512 17.9062 19.2616 16.8556 19.2616H16.1787C15.6946 19.2616 15.2245 19.4359 14.8554 19.7484C14.4869 20.0643 14.2424 20.5007 14.1655 20.9799L14.1145 21.2572L13.2576 26.6865L13.2187 26.8859C13.2085 26.949 13.1909 26.9805 13.1649 27.0018C13.1398 27.0224 13.1084 27.0338 13.0759 27.0343H8.89652Z" fill="#0A47C2"/>
<path d="M23.5306 7.10962C23.5046 7.27561 23.4749 7.4453 23.4416 7.61964C22.2945 13.509 18.3701 15.5435 13.358 15.5435H10.8061C10.1931 15.5435 9.67659 15.9886 9.58108 16.5932L8.2745 24.8796L7.9045 27.2285C7.88976 27.3217 7.89539 27.4169 7.921 27.5077C7.9466 27.5985 7.99158 27.6827 8.05283 27.7544C8.11408 27.8261 8.19015 27.8838 8.2758 27.9233C8.36145 27.9628 8.45465 27.9833 8.54898 27.9833H13.0752C13.6112 27.9833 14.0665 27.5939 14.1509 27.0653L14.1954 26.8353L15.0476 21.4273L15.1023 21.1305C15.1857 20.6001 15.642 20.2106 16.1779 20.2106H16.8549C21.2401 20.2106 24.673 18.4302 25.6764 13.2781C26.0955 11.1258 25.8785 9.32867 24.7695 8.06475C24.4179 7.67376 23.9981 7.3501 23.5306 7.10962Z" fill="#179BD7"/>
<path d="M22.3296 6.63068C21.9634 6.52473 21.5908 6.44203 21.2141 6.38309C20.4697 6.2687 19.7175 6.21382 18.9644 6.21896H12.1469C11.8874 6.21876 11.6364 6.31139 11.4393 6.4801C11.2422 6.64881 11.112 6.88247 11.0721 7.13885L9.62181 16.3248L9.58008 16.5928C9.62526 16.3003 9.77361 16.0337 9.9983 15.8412C10.223 15.6487 10.5092 15.5429 10.8051 15.543H13.357C18.3691 15.543 22.2935 13.5076 23.4405 7.61919C23.4748 7.44486 23.5036 7.27516 23.5296 7.10917C23.2269 6.95045 22.9114 6.81737 22.5865 6.71136C22.5013 6.68309 22.4157 6.6562 22.3296 6.63068Z" fill="#0A47C2"/>
<path d="M11.0733 7.13935C11.1128 6.8829 11.243 6.64913 11.4402 6.4805C11.6374 6.31187 11.8885 6.21958 12.148 6.22039H18.9656C19.7733 6.22039 20.5272 6.27324 21.2152 6.38452C21.6808 6.4577 22.14 6.56714 22.5886 6.71186C22.927 6.82406 23.2414 6.95667 23.5317 7.10967C23.8729 4.93328 23.5289 3.45144 22.3521 2.10963C21.0548 0.632424 18.7134 0 15.7172 0H7.01907C6.40705 0 5.88497 0.445108 5.79039 1.05064L2.16739 24.0154C2.15052 24.1221 2.15694 24.2311 2.18621 24.335C2.21549 24.4389 2.26692 24.5352 2.33698 24.6173C2.40703 24.6995 2.49405 24.7654 2.59203 24.8107C2.69002 24.856 2.79666 24.8795 2.9046 24.8797H8.27465L9.62295 16.3253L11.0733 7.13935Z" fill="#0A47C2"/>
</svg>
