<svg width="32" height="32" viewBox="0 0 32 32" fill="none" xmlns="http://www.w3.org/2000/svg">
<g clip-path="url(#clip0_875_10699)">
<path d="M19.802 9.76833L3.01853 0.123178C2.80763 4.82537e-05 2.5423 0.00688879 2.33821 0.130018C2.12731 0.253148 1.99805 0.472045 1.99805 0.718304C1.99805 0.718304 2.00485 1.60757 2.01165 3.07145L14.237 15.3639L19.802 9.76833Z" fill="url(#paint0_linear_875_10699)"/>
<path d="M2.01172 3.07129C2.03213 8.35219 2.09336 21.1714 2.12057 27.5536L14.2439 15.3637L2.01172 3.07129Z" fill="url(#paint1_linear_875_10699)"/>
<path d="M29.4084 15.2889L19.8023 9.76855L14.2305 15.3641L20.5166 21.6848L29.4152 16.4723C29.6262 16.3492 29.7554 16.1234 29.7554 15.884C29.7554 15.6377 29.6193 15.412 29.4084 15.2889Z" fill="url(#paint2_linear_875_10699)"/>
<path d="M2.11328 27.5536C2.12689 29.8315 2.13369 31.2885 2.13369 31.2885C2.13369 31.5348 2.26295 31.7605 2.47385 31.8768C2.68475 31.9999 2.94327 31.9999 3.15417 31.8768L20.5227 21.6913L14.2366 15.3706L2.11328 27.5536Z" fill="url(#paint3_linear_875_10699)"/>
</g>
<defs>
<linearGradient id="paint0_linear_875_10699" x1="1.99805" y1="7.70208" x2="19.8052" y2="7.70208" gradientUnits="userSpaceOnUse">
<stop stop-color="#63BE6B"/>
<stop offset="0.506" stop-color="#5BBC6A"/>
<stop offset="1" stop-color="#4AB96A"/>
</linearGradient>
<linearGradient id="paint1_linear_875_10699" x1="2.00845" y1="15.3154" x2="14.2368" y2="15.3154" gradientUnits="userSpaceOnUse">
<stop stop-color="#3EC6F2"/>
<stop offset="1" stop-color="#45AFE3"/>
</linearGradient>
<linearGradient id="paint2_linear_875_10699" x1="14.237" y1="15.731" x2="29.7538" y2="15.731" gradientUnits="userSpaceOnUse">
<stop stop-color="#FAA51A"/>
<stop offset="0.387" stop-color="#FAB716"/>
<stop offset="0.741" stop-color="#FAC412"/>
<stop offset="1" stop-color="#FAC80F"/>
</linearGradient>
<linearGradient id="paint3_linear_875_10699" x1="2.11627" y1="23.6696" x2="20.5225" y2="23.6696" gradientUnits="userSpaceOnUse">
<stop stop-color="#EC3B50"/>
<stop offset="1" stop-color="#E7515B"/>
</linearGradient>
<clipPath id="clip0_875_10699">
<rect width="32" height="32" fill="white"/>
</clipPath>
</defs>
</svg>
