<svg width="32" height="32" viewBox="0 0 32 32" fill="none" xmlns="http://www.w3.org/2000/svg">
<g clip-path="url(#clip0_435_4863)">
<path d="M20.9385 10.6666C22.1371 10.6667 23.2871 11.1158 23.2871 11.1158L22.9141 13.3287C21.7967 12.6962 19.2544 12.5466 19.2539 13.7115C19.2539 14.8764 22.8975 15.126 22.8975 17.8053C22.8975 20.3852 20.2096 21.3335 18.4277 21.3336C16.663 21.3336 15.502 20.7623 15.4805 20.7516L15.8682 18.4381C16.9374 19.3198 20.1768 19.5698 20.1768 18.1715C20.1765 16.7733 16.5654 16.7399 16.5654 14.0778C16.5656 11.2485 19.6427 10.6666 20.9385 10.6666ZM11.874 10.8512L7.71973 21.1559H4.99902L2.73047 12.2028C3.10347 12.4332 3.49061 12.7042 3.87402 13.0231C5.23457 14.1543 5.90777 15.4949 6.15918 16.0944L6.28027 16.4117V16.4127L6.2793 16.4117L6.57422 17.9381L9.06348 10.8512H11.874ZM13.8711 21.1559H11.2598L12.8926 10.8512H15.5039L13.8711 21.1559ZM29.9082 10.8502L31.999 21.1559H29.6016L29.2959 19.6246H25.9766L25.4316 21.1559H22.71L26.6045 11.6188C26.6045 11.6188 26.8403 10.8502 27.8096 10.8502H29.9082ZM26.7285 17.5104H28.8721L28.1006 13.6539L26.7285 17.5104ZM2.30762 11.9567C2.42377 12.0211 2.54232 12.089 2.66211 12.1617C2.54229 12.0891 2.42379 12.0211 2.30762 11.9567ZM2.02344 11.8043C2.07321 11.83 2.12407 11.8552 2.1748 11.8824C2.12407 11.8553 2.07321 11.83 2.02344 11.8043ZM1.72656 11.6559C1.77861 11.6807 1.83132 11.7065 1.88477 11.733C1.83132 11.7065 1.77861 11.6807 1.72656 11.6559ZM0.996094 11.3444C1.19437 11.4208 1.41614 11.5109 1.65332 11.6217C1.41615 11.5109 1.19432 11.4208 0.996094 11.3444ZM0.577148 11.192C0.640262 11.213 0.70785 11.2358 0.779297 11.2614C0.707864 11.2357 0.640243 11.213 0.577148 11.192ZM0.257812 11.0934C0.30535 11.107 0.35904 11.122 0.417969 11.1403C0.359053 11.122 0.305331 11.107 0.257812 11.0934Z" fill="#0A47C2"/>
<path d="M6.29275 16.2684L5.41249 11.7496C5.41249 11.7496 5.30605 10.8448 4.17151 10.8448H0.048381L0 11.015C0 11.015 1.98174 11.4257 3.88257 12.9645C5.70008 14.4353 6.29275 16.2684 6.29275 16.2684Z" fill="#E6A540"/>
</g>
<defs>
<clipPath id="clip0_435_4863">
<rect width="32" height="32" fill="white"/>
</clipPath>
</defs>
</svg>
